<svg version="1.1" xmlns="http://www.w3.org/2000/svg" viewBox="0 0 281 256" preserveAspectRatio="xMidYMid meet" xmlns:xlink="http://www.w3.org/1999/xlink" xmlns:svgjs="http://svgjs.dev/svgjs">
<path d="M0 0 C0.909 0.644 0.909 0.644 1.836 1.301 C2.504 1.74 3.171 2.18 3.859 2.633 C9.997 7.277 13.318 13.703 16.832 20.391 C17.828 22.287 18.847 24.17 19.871 26.051 C23.06 31.933 26.131 37.86 29.086 43.863 C32.163 50.074 35.444 56.159 38.773 62.238 C39.292 63.186 39.81 64.133 40.345 65.109 C42.26 68.604 44.176 72.099 46.094 75.592 C50.147 82.992 53.988 90.339 56.836 98.301 C54.972 100.165 51.861 99.565 49.363 99.652 C48.697 99.676 48.03 99.7 47.343 99.725 C39.176 100.004 31.007 100.181 22.836 100.301 C21.566 100.32 20.295 100.339 18.986 100.358 C15.663 100.385 12.346 100.357 9.023 100.301 C8.042 100.308 7.06 100.315 6.049 100.323 C-0.362 100.125 -0.362 100.125 -2.677 97.746 C-4.122 95.325 -5.164 93.158 -5.164 90.301 C-5.824 89.971 -6.484 89.641 -7.164 89.301 C-7.164 88.311 -7.164 87.321 -7.164 86.301 C-7.824 86.301 -8.484 86.301 -9.164 86.301 C-9.164 84.981 -9.164 83.661 -9.164 82.301 C-9.824 82.301 -10.484 82.301 -11.164 82.301 C-12.814 79.001 -14.464 75.701 -16.164 72.301 C-19.86 73.533 -20.039 74.375 -21.809 77.734 C-22.314 78.681 -22.819 79.628 -23.34 80.603 C-24.15 82.155 -24.15 82.155 -24.977 83.738 C-25.542 84.801 -26.107 85.864 -26.69 86.959 C-27.897 89.229 -29.1 91.501 -30.3 93.774 C-33.374 99.589 -36.488 105.382 -39.602 111.176 C-40.451 112.768 -40.451 112.768 -41.318 114.392 C-44.367 120.083 -47.544 125.657 -50.898 131.174 C-52.339 133.595 -53.593 136.063 -54.789 138.613 C-58.158 145.503 -62 152.109 -65.85 158.74 C-68.418 163.177 -70.872 167.623 -73.127 172.228 C-75.254 176.479 -77.569 180.632 -79.852 184.801 C-80.378 185.765 -80.905 186.73 -81.448 187.724 C-84.6 193.484 -87.797 199.216 -91.039 204.926 C-93.516 209.29 -95.891 213.668 -98.102 218.176 C-101.033 224.154 -104.186 230.004 -107.518 235.769 C-109.416 239.056 -111.088 242.089 -112.367 245.676 C-113.547 248.775 -114.652 250.157 -117.164 252.301 C-125.05 254.299 -136.176 254.324 -143.355 250.246 C-144.282 249.604 -145.209 248.962 -146.164 248.301 C-146.164 247.641 -146.164 246.981 -146.164 246.301 C-147.154 245.971 -148.144 245.641 -149.164 245.301 C-153.24 241.225 -154.673 236.722 -156.164 231.301 C-156.432 230.331 -156.7 229.362 -156.977 228.363 C-157.79 215.082 -149.361 203.13 -142.844 192.152 C-140.162 187.6 -137.662 182.955 -135.164 178.301 C-134.698 177.436 -134.698 177.436 -134.222 176.554 C-130.865 170.324 -127.528 164.094 -124.414 157.738 C-118.178 145.147 -111.223 132.894 -104.289 120.676 C-101.25 115.317 -98.408 109.898 -95.691 104.367 C-91.758 96.469 -87.652 88.637 -83.039 81.113 C-80.337 76.704 -78.07 72.145 -75.797 67.504 C-73.72 63.429 -71.436 59.486 -69.136 55.535 C-66.362 50.733 -63.879 45.826 -61.488 40.824 C-60.232 38.431 -58.799 36.443 -57.164 34.301 C-56.492 32.72 -55.822 31.139 -55.168 29.551 C-49.566 16.996 -42.51 3.593 -29.184 -1.969 C-20.318 -4.113 -8.103 -4.66 0 0 Z " fill="rgb(43, 127, 255)" transform="translate(159.1640625,3.69921875)" class=""></path>
<path d="M0 0 C1.039 -0.01 1.039 -0.01 2.098 -0.02 C4.43 -0.04 6.761 -0.053 9.092 -0.066 C10.759 -0.079 12.427 -0.092 14.094 -0.106 C29.309 -0.222 44.525 -0.278 59.74 -0.323 C70.992 -0.356 82.243 -0.415 93.495 -0.51 C101.401 -0.574 109.308 -0.608 117.215 -0.619 C121.94 -0.627 126.664 -0.648 131.388 -0.702 C135.833 -0.753 140.277 -0.765 144.722 -0.749 C146.354 -0.75 147.985 -0.764 149.616 -0.793 C161.961 -1.001 161.961 -1.001 165.4 1.932 C166.723 3.996 167.581 5.851 168.339 8.174 C168.717 8.977 169.095 9.78 169.484 10.608 C172.355 19.222 172.235 26.882 168.339 35.174 C164.774 41.414 160.029 46.393 153.339 49.174 C147.272 50.033 141.268 49.934 135.152 49.855 C133.308 49.854 131.464 49.855 129.621 49.858 C124.635 49.86 119.651 49.824 114.666 49.782 C109.449 49.745 104.232 49.741 99.015 49.734 C89.145 49.716 79.275 49.666 69.405 49.606 C58.164 49.539 46.923 49.506 35.683 49.476 C12.568 49.413 -10.546 49.308 -33.661 49.174 C-32.409 45.313 -31.098 41.89 -29.051 38.381 C-28.547 37.509 -28.042 36.637 -27.522 35.738 C-26.99 34.83 -26.459 33.922 -25.911 32.987 C-24.82 31.102 -23.73 29.216 -22.641 27.33 C-22.122 26.434 -21.603 25.539 -21.068 24.615 C-17.005 17.568 -13.218 10.426 -9.739 3.073 C-7.531 -0.815 -4.082 0.031 0 0 Z " fill="rgb(43, 127, 255)" transform="translate(107.66072082519531,206.82591247558594)" class=""></path>
<path d="M0 0 C0.833 -0.003 1.665 -0.007 2.523 -0.01 C5.285 -0.02 8.047 -0.022 10.809 -0.023 C12.725 -0.026 14.64 -0.029 16.556 -0.033 C20.576 -0.039 24.596 -0.041 28.616 -0.04 C33.77 -0.04 38.924 -0.054 44.078 -0.071 C48.036 -0.082 51.994 -0.084 55.953 -0.083 C57.853 -0.085 59.753 -0.089 61.653 -0.097 C64.311 -0.107 66.968 -0.104 69.625 -0.098 C70.412 -0.103 71.198 -0.109 72.009 -0.115 C78.844 -0.075 78.844 -0.075 81.942 2.145 C83.293 4.333 83.293 4.333 84.567 7.145 C87.116 12.526 89.888 17.712 92.817 22.895 C96.184 28.9 99.459 34.94 102.567 41.083 C102.91 41.751 103.252 42.419 103.605 43.107 C105.044 45.987 105.942 47.881 105.942 51.145 C98.523 52.151 91.283 52.248 83.803 52.167 C81.87 52.153 81.87 52.153 79.898 52.138 C76.39 52.112 72.882 52.079 69.375 52.045 C65.699 52.01 62.024 51.982 58.348 51.953 C51.4 51.897 44.452 51.835 37.503 51.772 C29.588 51.7 21.672 51.634 13.757 51.569 C-2.515 51.434 -18.786 51.292 -35.058 51.145 C-34.38 47.45 -33.464 44.69 -31.617 41.407 C-31.119 40.512 -30.622 39.617 -30.109 38.694 C-29.31 37.278 -29.31 37.278 -28.496 35.833 C-24.373 28.411 -20.362 20.968 -16.646 13.333 C-10.127 -0.006 -10.127 -0.006 0 0 Z " fill="rgb(43, 127, 255)" transform="translate(150.05810546875,128.854736328125)" class=""></path>
<path d="M0 0 C0.66 0 1.32 0 2 0 C2.378 0.701 2.756 1.402 3.146 2.124 C4.867 5.312 6.59 8.5 8.312 11.688 C8.907 12.79 9.502 13.893 10.115 15.029 C10.692 16.096 11.269 17.163 11.863 18.262 C12.392 19.241 12.921 20.22 13.466 21.229 C14.496 23.09 15.574 24.926 16.696 26.734 C18 29 18 29 18 31 C44.73 30.505 44.73 30.505 72 30 C70.35 26.7 68.7 23.4 67 20 C67 19.01 67 18.02 67 17 C66.34 17 65.68 17 65 17 C64.01 14.69 63.02 12.38 62 10 C62.66 9.67 63.32 9.34 64 9 C65.464 11.705 66.921 14.414 68.375 17.125 C68.787 17.886 69.2 18.646 69.625 19.43 C71.825 23.546 73.69 27.495 75 32 C73.136 33.864 70.025 33.264 67.527 33.352 C66.861 33.375 66.194 33.399 65.507 33.424 C57.34 33.703 49.171 33.88 41 34 C39.73 34.019 38.459 34.038 37.15 34.058 C33.827 34.084 30.51 34.056 27.188 34 C26.206 34.007 25.224 34.015 24.213 34.022 C17.802 33.824 17.802 33.824 15.487 31.445 C14.042 29.024 13 26.857 13 24 C12.34 23.67 11.68 23.34 11 23 C11 22.01 11 21.02 11 20 C10.34 20 9.68 20 9 20 C9 18.68 9 17.36 9 16 C8.34 16 7.68 16 7 16 C4.525 11.05 4.525 11.05 2 6 C-1.696 7.232 -1.875 8.075 -3.645 11.434 C-4.15 12.38 -4.655 13.327 -5.176 14.302 C-5.716 15.337 -6.256 16.372 -6.812 17.438 C-7.975 19.625 -9.138 21.813 -10.301 24 C-10.905 25.145 -11.509 26.289 -12.131 27.469 C-15.222 33.309 -18.364 39.122 -21.5 44.938 C-22.075 46.007 -22.649 47.077 -23.241 48.179 C-26.448 54.146 -29.69 60.09 -33 66 C-33.66 65.34 -34.32 64.68 -35 64 C-32.672 59.607 -30.342 55.214 -28.011 50.823 C-27.221 49.332 -26.43 47.842 -25.64 46.351 C-20.234 36.15 -14.748 26.013 -9 16 C-5.957 10.69 -2.95 5.362 0 0 Z " fill="rgb(43, 127, 255)" transform="translate(141,70)"></path>
<path d="M0 0 C0.696 -0.001 1.392 -0.002 2.109 -0.003 C4.452 -0.004 6.795 0.001 9.138 0.007 C10.813 0.007 12.488 0.007 14.164 0.006 C18.721 0.006 23.279 0.012 27.836 0.019 C32.596 0.025 37.355 0.026 42.114 0.027 C51.131 0.03 60.148 0.038 69.165 0.048 C79.428 0.059 89.692 0.065 99.955 0.07 C121.072 0.08 142.189 0.098 163.306 0.12 C163.306 0.45 163.306 0.78 163.306 1.12 C145.57 2.251 127.851 2.254 110.089 2.222 C105.969 2.215 101.849 2.215 97.729 2.214 C89.963 2.211 82.197 2.202 74.431 2.192 C65.575 2.181 56.718 2.176 47.862 2.171 C29.677 2.16 11.491 2.143 -6.694 2.12 C-7.004 2.902 -7.313 3.683 -7.632 4.488 C-9.217 8.414 -11.174 12.119 -13.132 15.87 C-13.527 16.65 -13.922 17.43 -14.329 18.234 C-14.716 18.975 -15.104 19.716 -15.503 20.48 C-15.852 21.155 -16.2 21.83 -16.559 22.526 C-17.694 24.12 -17.694 24.12 -20.694 25.12 C-19.294 20.351 -17.218 16.248 -14.694 11.995 C-11.998 7.447 -11.998 7.447 -9.569 2.753 C-7.582 -0.955 -3.726 -0.003 0 0 Z " fill="rgb(43, 127, 255)" transform="translate(107.69436645507813,206.87974548339844)"></path>
<path d="M0 0 C0.66 0.33 1.32 0.66 2 1 C0.68 3.64 -0.64 6.28 -2 9 C-0.667 9.01 0.666 9.021 2.039 9.031 C14.716 9.13 27.394 9.233 40.071 9.339 C46.585 9.394 53.1 9.447 59.614 9.497 C65.923 9.546 72.232 9.598 78.541 9.653 C80.925 9.673 83.31 9.692 85.694 9.709 C102.146 9.83 118.563 10.273 135 11 C135.33 10.34 135.66 9.68 136 9 C136 9.99 136 10.98 136 12 C128.581 13.006 121.341 13.102 113.861 13.022 C112.572 13.012 111.284 13.003 109.956 12.993 C106.448 12.966 102.94 12.934 99.433 12.899 C95.757 12.865 92.082 12.836 88.406 12.807 C81.458 12.751 74.51 12.69 67.561 12.627 C59.646 12.555 51.731 12.489 43.815 12.424 C27.543 12.289 11.272 12.147 -5 12 C-4.112 7.203 -2.525 4.154 0 0 Z " fill="rgb(43, 127, 255)" transform="translate(120,168)"></path>
<path d="M0 0 C0.833 -0.003 1.665 -0.007 2.523 -0.01 C5.285 -0.02 8.047 -0.022 10.809 -0.023 C12.725 -0.026 14.64 -0.029 16.556 -0.033 C20.576 -0.039 24.596 -0.041 28.616 -0.04 C33.77 -0.04 38.924 -0.054 44.078 -0.071 C48.036 -0.082 51.994 -0.084 55.953 -0.083 C57.853 -0.085 59.753 -0.089 61.653 -0.097 C64.311 -0.107 66.968 -0.104 69.625 -0.098 C70.412 -0.103 71.198 -0.109 72.009 -0.115 C78.813 -0.075 78.813 -0.075 81.942 2.145 C83.633 4.766 83.942 5.972 83.942 9.145 C83.282 9.145 82.622 9.145 81.942 9.145 C80.952 7.165 79.962 5.185 78.942 3.145 C50.232 2.815 21.522 2.485 -8.058 2.145 C-8.718 3.795 -9.378 5.445 -10.058 7.145 C-13.614 12.923 -13.614 12.923 -16.058 14.145 C-14.643 9.309 -12.722 5.39 -10.058 1.145 C-6.89 -0.439 -3.479 -0.002 0 0 Z " fill="rgb(43, 127, 255)" transform="translate(150.05810546875,128.854736328125)"></path>
<path d="M0 0 C3.058 3.683 5.027 7.794 7.125 12.062 C7.664 13.142 7.664 13.142 8.215 14.244 C9.658 17.154 10.971 19.912 12 23 C10.06 24.94 6.443 24.3 3.789 24.387 C3.065 24.412 2.341 24.438 1.595 24.464 C0.06 24.516 -1.475 24.566 -3.01 24.613 C-5.359 24.687 -7.706 24.778 -10.055 24.869 C-11.544 24.918 -13.034 24.965 -14.523 25.012 C-15.578 25.055 -15.578 25.055 -16.654 25.1 C-20.375 25.196 -21.809 25.127 -25 23 C-13.45 23 -1.9 23 10 23 C8.02 19.04 6.04 15.08 4 11 C4 10.01 4 9.02 4 8 C3.34 8 2.68 8 2 8 C1.01 5.69 0.02 3.38 -1 1 C-0.67 0.67 -0.34 0.34 0 0 Z " fill="rgb(43, 127, 255)" transform="translate(204,79)"></path>
<path d="M0 0 C0.66 0 1.32 0 2 0 C2 0.66 2 1.32 2 2 C20.15 2 38.3 2 57 2 C57 2.33 57 2.66 57 3 C55.961 3.025 54.921 3.05 53.851 3.076 C49.989 3.17 46.128 3.27 42.266 3.372 C40.596 3.416 38.926 3.457 37.255 3.497 C34.852 3.555 32.45 3.619 30.047 3.684 C29.302 3.7 28.557 3.717 27.789 3.734 C24.374 3.831 21.292 4.113 18 5 C15.985 5.022 15.985 5.022 13.891 4.879 C13.137 4.831 12.382 4.782 11.605 4.732 C10.828 4.676 10.051 4.62 9.25 4.562 C8.457 4.51 7.664 4.458 6.848 4.404 C4.898 4.275 2.949 4.138 1 4 C0.67 2.68 0.34 1.36 0 0 Z " fill="rgb(43, 127, 255)" transform="translate(157,99)"></path>
<path d="M0 0 C0 3.919 -1.67 6.505 -3.5 9.855 C-3.855 10.517 -4.21 11.179 -4.576 11.86 C-5.712 13.973 -6.856 16.08 -8 18.188 C-8.771 19.619 -9.542 21.05 -10.312 22.482 C-12.202 25.992 -14.099 29.497 -16 33 C-16.66 32.34 -17.32 31.68 -18 31 C-15.926 27.064 -13.844 23.131 -11.756 19.202 C-11.047 17.865 -10.34 16.528 -9.635 15.189 C-8.62 13.263 -7.598 11.34 -6.574 9.418 C-5.655 7.682 -5.655 7.682 -4.718 5.911 C-3.294 3.498 -2.101 1.808 0 0 Z " fill="rgb(43, 127, 255)" transform="translate(124,103)"></path>
<path d="M0 0 C0 0.33 0 0.66 0 1 C-0.629 1.147 -1.258 1.294 -1.906 1.445 C-10.861 3.792 -16.739 8.347 -23 15 C-23.33 14.34 -23.66 13.68 -24 13 C-18.711 5.662 -9.702 -2.967 0 0 Z " fill="rgb(43, 127, 255)" transform="translate(138,2)"></path>
<path d="M0 0 C1 3 1 3 -0.004 5.531 C-0.775 7.001 -0.775 7.001 -1.562 8.5 C-2.113 9.557 -2.663 10.614 -3.23 11.703 C-5.796 16.483 -8.367 21.257 -11 26 C-11.66 26 -12.32 26 -13 26 C-11.309 21.514 -9.213 17.277 -7.062 13 C-6.715 12.301 -6.368 11.603 -6.01 10.883 C-4.144 7.159 -2.205 3.539 0 0 Z " fill="rgb(43, 127, 255)" transform="translate(95,50)"></path>
<path d="M0 0 C0.66 0 1.32 0 2 0 C0.548 3.762 -1.094 7.382 -2.875 11 C-3.367 12.011 -3.86 13.021 -4.367 14.062 C-5.997 16.994 -7.833 19.448 -10 22 C-10.33 21.01 -10.66 20.02 -11 19 C-10.34 19 -9.68 19 -9 19 C-8.818 18.408 -8.636 17.817 -8.449 17.207 C-7.039 12.774 -5.599 8.898 -3 5 C-2.484 4.072 -1.969 3.144 -1.438 2.188 C-0.963 1.466 -0.489 0.744 0 0 Z " fill="rgb(43, 127, 255)" transform="translate(64,211)"></path>
<path d="M0 0 C0.66 0 1.32 0 2 0 C5.63 6.93 9.26 13.86 13 21 C12.01 21 11.02 21 10 21 C8.327 17.879 6.662 14.752 5 11.625 C4.523 10.736 4.046 9.846 3.555 8.93 C3.104 8.079 2.652 7.228 2.188 6.352 C1.769 5.566 1.35 4.781 0.918 3.971 C0 2 0 2 0 0 Z " fill="rgb(43, 127, 255)" transform="translate(234,139)"></path>
<path d="M0 0 C0.66 0.33 1.32 0.66 2 1 C0.762 3.611 -0.489 6.213 -1.75 8.812 C-2.098 9.55 -2.446 10.288 -2.805 11.049 C-4.695 14.916 -6.124 17.791 -10 20 C-8.563 15.086 -6.458 10.998 -3.875 6.625 C-3.502 5.984 -3.13 5.344 -2.746 4.684 C-1.836 3.12 -0.919 1.559 0 0 Z " fill="rgb(43, 127, 255)" transform="translate(39,154)"></path>
<path d="M0 0 C0.66 0.33 1.32 0.66 2 1 C0.627 5.711 -1.401 9.683 -4 13.812 C-4.356 14.397 -4.712 14.982 -5.078 15.584 C-7.74 19.87 -7.74 19.87 -10 21 C-8.582 15.753 -6.075 11.295 -3.438 6.586 C-2.23 4.415 -1.09 2.232 0 0 Z " fill="rgb(43, 127, 255)" transform="translate(132,145)"></path>
<path d="M0 0 C6.421 1.806 11.768 6.907 15.5 12.312 C17 15 17 15 17 17 C13.556 15.852 13.115 15.086 11.125 12.188 C8.724 8.852 6.341 6.438 3 4 C1.188 2.313 1.188 2.313 0 1 C0 0.67 0 0.34 0 0 Z " fill="rgb(43, 127, 255)" transform="translate(156,3)"></path>
<path d="M0 0 C0.66 0.66 1.32 1.32 2 2 C0.578 4.821 -0.865 7.63 -2.312 10.438 C-2.717 11.24 -3.121 12.042 -3.537 12.869 C-3.933 13.633 -4.33 14.397 -4.738 15.184 C-5.1 15.891 -5.461 16.598 -5.833 17.326 C-7 19 -7 19 -10 20 C-8.563 15.086 -6.458 10.998 -3.875 6.625 C-3.502 5.984 -3.13 5.344 -2.746 4.684 C-1.836 3.12 -0.919 1.559 0 0 Z " fill="rgb(43, 127, 255)" transform="translate(97,212)"></path>
<path d="M0 0 C5.159 4.401 8.14 9.896 11 16 C11 16.66 11 17.32 11 18 C10.34 18 9.68 18 9 18 C8.711 17.196 8.423 16.391 8.125 15.562 C7.267 12.867 7.267 12.867 5 12 C5 11.01 5 10.02 5 9 C4.34 9 3.68 9 3 9 C3 7.68 3 6.36 3 5 C2.34 5 1.68 5 1 5 C0.67 3.35 0.34 1.7 0 0 Z " fill="rgb(43, 127, 255)" transform="translate(147,81)"></path>
<path d="M0 0 C0.66 0 1.32 0 2 0 C0.342 4.493 -1.85 8.612 -4.125 12.812 C-4.498 13.505 -4.87 14.198 -5.254 14.912 C-6.167 16.609 -7.083 18.305 -8 20 C-8.66 19.34 -9.32 18.68 -10 18 C-6.7 12.06 -3.4 6.12 0 0 Z " fill="rgb(43, 127, 255)" transform="translate(104,138)"></path>
<path d="M0 0 C0.66 0 1.32 0 2 0 C0.028 6.993 -2.834 13.868 -9 18 C-7.456 13.86 -5.49 10.064 -3.375 6.188 C-3.05 5.59 -2.725 4.993 -2.391 4.377 C-1.596 2.917 -0.798 1.458 0 0 Z " fill="rgb(43, 127, 255)" transform="translate(49,135)"></path>
<path d="M0 0 C0.33 0.66 0.66 1.32 1 2 C-0.241 4.612 -1.531 7.105 -2.938 9.625 C-3.324 10.331 -3.71 11.038 -4.107 11.766 C-5.064 13.514 -6.031 15.258 -7 17 C-7.66 16.01 -8.32 15.02 -9 14 C-7.689 11.853 -6.376 9.707 -5.062 7.562 C-4.689 6.951 -4.316 6.339 -3.932 5.709 C-1.113 1.113 -1.113 1.113 0 0 Z " fill="rgb(43, 127, 255)" transform="translate(75,192)"></path>
<path d="M0 0 C0.66 0.99 1.32 1.98 2 3 C0 6 -2 9 -4 12 C-5 9 -5 9 -4.004 6.738 C-3.528 5.938 -3.053 5.137 -2.562 4.312 C-2.089 3.504 -1.616 2.696 -1.129 1.863 C-0.756 1.248 -0.384 0.634 0 0 Z M-6 11 C-5.34 11.33 -4.68 11.66 -4 12 C-4 12.66 -4 13.32 -4 14 C-4.66 14 -5.32 14 -6 14 C-6.33 14.99 -6.66 15.98 -7 17 C-7.33 16.34 -7.66 15.68 -8 15 C-7.062 12.875 -7.062 12.875 -6 11 Z " fill="rgb(43, 127, 255)" transform="translate(86,232)"></path>
<path d="M0 0 C0 3.722 -1.18 5.464 -3 8.688 C-3.835 10.178 -3.835 10.178 -4.688 11.699 C-5.337 12.838 -5.337 12.838 -6 14 C-6.66 13.34 -7.32 12.68 -8 12 C-7.045 10.373 -6.086 8.748 -5.125 7.125 C-4.591 6.22 -4.058 5.315 -3.508 4.383 C-2 2 -2 2 0 0 Z " fill="rgb(43, 127, 255)" transform="translate(124,103)"></path>
<path d="M0 0 C0.66 0 1.32 0 2 0 C2 0.66 2 1.32 2 2 C1.34 2 0.68 2 0 2 C0 1.34 0 0.68 0 0 Z M2 2 C5.092 4.53 5.909 7.225 7 11 C5.062 9.875 5.062 9.875 3 8 C2.25 4.812 2.25 4.812 2 2 Z " fill="rgb(43, 127, 255)" transform="translate(141,70)"></path>
<path d="M0 0 C0.33 1.32 0.66 2.64 1 4 C0.402 4.103 -0.196 4.206 -0.812 4.312 C-3.282 5.089 -4.323 6.071 -6 8 C-5.624 5.218 -5.327 3.412 -3.562 1.188 C-2 0 -2 0 0 0 Z " fill="rgb(43, 127, 255)" transform="translate(143,72)"></path>
<path d="M0 0 C4.208 1.503 5.803 4.233 8 8 C8 8.66 8 9.32 8 10 C4.697 8.899 4.215 8.31 2.312 5.562 C1.876 4.945 1.439 4.328 0.988 3.691 C0 2 0 2 0 0 Z " fill="rgb(43, 127, 255)" transform="translate(165,10)"></path>
<path d="M0 0 C0.66 0.33 1.32 0.66 2 1 C-0.625 6.75 -0.625 6.75 -4 9 C-2.941 5.597 -1.991 2.986 0 0 Z " fill="rgb(43, 127, 255)" transform="translate(39,154)"></path>
<path d="M0 0 C1 3 1 3 -0.25 6.062 C-2 9 -2 9 -5 11 C-3.775 6.947 -2.301 3.556 0 0 Z " fill="rgb(43, 127, 255)" transform="translate(95,50)"></path>
<path d="M0 0 C2.375 0.25 2.375 0.25 5 1 C6.794 3.563 7 4.831 7 8 C6.34 8 5.68 8 5 8 C4.546 7.051 4.093 6.102 3.625 5.125 C2.198 1.997 2.198 1.997 0 0 Z " fill="rgb(43, 127, 255)" transform="translate(227,130)"></path>
<path d="M0 0 C3.092 2.53 3.909 5.225 5 9 C2.5 6.75 2.5 6.75 0 4 C0 2.68 0 1.36 0 0 Z " fill="rgb(43, 127, 255)" transform="translate(173,21)"></path>
<path d="M0 0 C4 2 4 2 5.25 5.125 C5.498 6.074 5.745 7.022 6 8 C5.34 8 4.68 8 4 8 C2.68 5.36 1.36 2.72 0 0 Z " fill="rgb(43, 127, 255)" transform="translate(210,94)"></path>
<path d="M0 0 C0.66 0.99 1.32 1.98 2 3 C0.35 4.32 -1.3 5.64 -3 7 C-1.125 2.25 -1.125 2.25 0 0 Z " fill="rgb(43, 127, 255)" transform="translate(43,146)"></path>
<path d="M0 0 C0.66 0 1.32 0 2 0 C0.926 2.915 0.222 4.778 -2 7 C-2.33 6.34 -2.66 5.68 -3 5 C-1.688 2.375 -1.688 2.375 0 0 Z " fill="rgb(43, 127, 255)" transform="translate(104,138)"></path>
<path d="M0 0 C0.66 0.66 1.32 1.32 2 2 C0.35 3.65 -1.3 5.3 -3 7 C-1.125 1.125 -1.125 1.125 0 0 Z " fill="rgb(43, 127, 255)" transform="translate(54,126)"></path>
<path d="M0 0 C0.33 0.66 0.66 1.32 1 2 C0.01 3.485 0.01 3.485 -1 5 C-1.66 5 -2.32 5 -3 5 C-1.125 1.125 -1.125 1.125 0 0 Z " fill="rgb(43, 127, 255)" transform="translate(90,227)"></path>
<path d="M0 0 C0.66 0 1.32 0 2 0 C1.67 1.32 1.34 2.64 1 4 C0.34 4 -0.32 4 -1 4 C-0.67 2.68 -0.34 1.36 0 0 Z " fill="rgb(43, 127, 255)" transform="translate(64,211)"></path>
<path d="M0 0 C0.33 0.66 0.66 1.32 1 2 C0.01 3.32 -0.98 4.64 -2 6 C-2.33 5.01 -2.66 4.02 -3 3 C-2.01 2.01 -1.02 1.02 0 0 Z " fill="rgb(43, 127, 255)" transform="translate(72,198)"></path>
<path d="M0 0 C0.66 0 1.32 0 2 0 C1.34 1.65 0.68 3.3 0 5 C-0.66 4.34 -1.32 3.68 -2 3 C-1.34 2.01 -0.68 1.02 0 0 Z " fill="rgb(43, 127, 255)" transform="translate(93,158)"></path>
<path d="M0 0 C0.66 0.99 1.32 1.98 2 3 C0.68 3.99 -0.64 4.98 -2 6 C-1.34 4.02 -0.68 2.04 0 0 Z " fill="rgb(43, 127, 255)" transform="translate(136,137)"></path>
<path d="M0 0 C0.33 0.66 0.66 1.32 1 2 C0.01 2.99 -0.98 3.98 -2 5 C-2 2 -2 2 0 0 Z " fill="rgb(43, 127, 255)" transform="translate(119,112)"></path>
<path d="M0 0 C1.5 1.375 1.5 1.375 3 3 C3 3.66 3 4.32 3 5 C2.01 4.67 1.02 4.34 0 4 C0 2.68 0 1.36 0 0 Z " fill="rgb(43, 127, 255)" transform="translate(170,15)"></path>
<path d="M0 0 C0.99 1.32 1.98 2.64 3 4 C2.01 4 1.02 4 0 4 C-0.33 3.34 -0.66 2.68 -1 2 C-0.67 1.34 -0.34 0.68 0 0 Z " fill="rgb(43, 127, 255)" transform="translate(244,156)"></path>
<path d="M0 0 C0.99 0.33 1.98 0.66 3 1 C3 1.66 3 2.32 3 3 C2.01 2.67 1.02 2.34 0 2 C0 1.34 0 0.68 0 0 Z " fill="rgb(43, 127, 255)" transform="translate(209,91)"></path>
<path d="M0 0 C0.66 0 1.32 0 2 0 C1.67 0.99 1.34 1.98 1 3 C0.34 2.34 -0.32 1.68 -1 1 C-0.67 0.67 -0.34 0.34 0 0 Z " fill="rgb(43, 127, 255)" transform="translate(104,138)"></path>
<path d="M0 0 C0.66 0.66 1.32 1.32 2 2 C1.01 2.33 0.02 2.66 -1 3 C-0.67 2.01 -0.34 1.02 0 0 Z " fill="rgb(43, 127, 255)" transform="translate(104,35)"></path>
</svg>